<svg xmlns="http://www.w3.org/2000/svg" width="4000" height="300" viewBox="0 0 4000 300">
  <defs>
    <style>
      .cls-1 {
        fill: #dba034;
        stroke: #db963c;
        stroke-linejoin: round;
        stroke-width: 2px;
        fill-rule: evenodd;
      }
    </style>
  </defs>
  <path id="CONRAD_SEWELL_NFT" data-name="CONRAD SEWELL NFT" class="cls-1" d="M197.247,270.413q26.244-11.057,41.062-33.563t14.813-56.625h-54q0,18-7.5,30.375a47.5,47.5,0,0,1-21.375,18.75q-13.878,6.381-32.625,6.375-24,0-39.188-9.187T75.747,199.163q-7.506-18.185-7.5-45.188V142.35q0-26.244,7.313-44.437T98.434,70.35Q113.99,60.981,138,60.975q17.622,0,30.937,6.562a48.08,48.08,0,0,1,20.625,18.938q7.313,12.375,7.313,30.375h56.25q0-34.119-15.188-56.625T196.5,26.475q-26.253-11.25-59.25-11.25-60.381,0-93.563,32.813T10.5,148.35q0,45.756,14.813,75.375t43.313,43.688q28.494,14.063,68.625,14.062Q171,281.475,197.247,270.413Zm281.437-3.563q29.435-14.625,45.188-44.25t15.75-74.25q0-45.369-15.75-74.812a100.29,100.29,0,0,0-45.188-43.875q-29.444-14.432-71.062-14.437-40.878,0-70.5,14.438a100.073,100.073,0,0,0-45.375,43.875Q276,102.981,276,148.35q0,44.631,15.75,74.25a100.861,100.861,0,0,0,45.375,44.25q29.619,14.625,70.5,14.625Q449.247,281.475,478.684,266.85ZM375.747,230.475a58.159,58.159,0,0,1-23.25-15.75,68.036,68.036,0,0,1-14.063-25.687q-4.694-15.187-4.687-34.688V142.725q0-19.872,4.687-35.25T352.5,81.788a59.169,59.169,0,0,1,23.25-15.562q13.869-5.247,31.875-5.25,18.369,0,32.25,5.25a59.256,59.256,0,0,1,23.25,15.563q9.369,10.318,14.25,25.687t4.875,35.25V154.35q0,19.5-4.875,34.688a70.245,70.245,0,0,1-14.25,25.687,58.242,58.242,0,0,1-23.25,15.75q-13.878,5.256-32.25,5.25Q389.622,235.725,375.747,230.475Zm252.75,46.5v-163.5h1.875q1.872,3.375,6,9.75t7.875,11.625L750,276.975h51.375V19.725H748.5V182.1h-1.875a48.888,48.888,0,0,0-4.125-7.125q-3.006-4.5-6.375-9.187t-5.625-7.313L627,19.725H575.622v257.25H628.5Zm276.375,0v-93.75H976.5l45.373,93.75h61.88l-52.5-103.125q21.375-10.125,32.62-29.437t11.25-44.438q0-23.625-9.37-41.812a65.922,65.922,0,0,0-28.32-28.312Q1018.5,19.725,990,19.725H849v257.25h55.875Zm0-211.875H982.5q11.619,0,19.5,4.125a27.674,27.674,0,0,1,12,12.188q4.11,8.068,4.12,19.312,0,17.631-9.37,27.938-9.39,10.318-26.253,10.312H904.872V65.1Zm240,211.875,18.38-50.625h112.12l18.38,50.625h60.37l-99-257.25h-69l-99,257.25h57.75Zm57.38-159q1.86-5.625,4.87-14.437t6-18.375q3-9.562,4.88-16.687h2.25c1.24,3.75,2.56,7.94,3.93,12.563s2.82,9.316,4.32,14.063,2.93,9.065,4.31,12.938,2.56,7.189,3.56,9.937l22.88,63.375h-79.88Zm278.25,159q40.11,0,68.25-13.875t43.31-42.375q15.18-28.494,15.19-72.375,0-44.244-15.19-72.562T1548.75,33.6q-28.125-13.869-68.25-13.875h-105v257.25h105Zm-49.13-211.5h48.75q16.875,0,30,5.063a55.749,55.749,0,0,1,21.75,14.625q8.625,9.563,13.13,24t4.5,33.562v11.25q0,19.125-4.5,33.563t-13.13,24a54.024,54.024,0,0,1-21.75,14.437q-13.125,4.878-30,4.875h-48.75V65.475Zm432.75,207.75q24.75-8.244,39-26.25t14.25-47.625q0-17.244-6.75-29.625a64.06,64.06,0,0,0-18-20.812,108.837,108.837,0,0,0-25.5-14.063,287.487,287.487,0,0,0-29.25-9.75q-15-4.122-29.25-7.5a210.641,210.641,0,0,1-25.69-7.687q-11.43-4.306-18-10.125a19.527,19.527,0,0,1-.75-28.5q5.82-5.809,16.88-8.812t26.81-3q14.625,0,25.5,4.125t16.88,11.25a25.944,25.944,0,0,1,6,17.25v3h54.37V90.6q0-19.494-8.06-33.75a68.437,68.437,0,0,0-22.31-23.625,100.723,100.723,0,0,0-33-13.687,177.287,177.287,0,0,0-39.75-4.312,189.454,189.454,0,0,0-41.63,4.313,110.153,110.153,0,0,0-33.75,13.313,65.206,65.206,0,0,0-22.69,22.875q-8.055,13.878-8.06,33,0,18,6.75,30.75a61.015,61.015,0,0,0,18,21,118.536,118.536,0,0,0,25.5,14.063,235.364,235.364,0,0,0,29.25,9.75q15,3.938,29.25,7.687a231.747,231.747,0,0,1,25.69,8.25q11.43,4.5,18,10.875t6.56,16.5a24.1,24.1,0,0,1-2.06,10.125,21.2,21.2,0,0,1-6.38,7.875,40.27,40.27,0,0,1-10.87,5.813,77.061,77.061,0,0,1-15,3.75,126.355,126.355,0,0,1-19.31,1.312q-16.875,0-29.63-4.125t-19.31-12.375q-6.57-8.244-6.56-20.25V196.35a9.783,9.783,0,0,1,.37-3h-55.5a10.592,10.592,0,0,0-.37,3.188v3.937q0,21.753,8.81,36.938a73.08,73.08,0,0,0,24.37,25.125,110.494,110.494,0,0,0,35.82,14.437,196.631,196.631,0,0,0,42.75,4.5Q1839.36,281.475,1864.12,273.225Zm296.25,3.75V230.85h-151.5V168.225h132V122.85h-132V65.475h149.25V19.725h-205.5v257.25h207.75Zm147,0,37.5-158.25q1.125-4.869,2.44-11.625t2.25-13.875q0.93-7.119,1.69-12.375h1.5q0.735,5.256,1.87,12t2.44,13.688q1.3,6.944,2.44,12.187l37.87,158.25h63.75L2529,19.725h-53.63L2438.25,173.1c-0.51,2.25-1.13,4.875-1.88,7.875s-1.44,6.188-2.06,9.563-1.25,6.691-1.88,9.937-1.19,6.252-1.68,9h-1.88q-0.75-5.625-1.87-12.75t-2.25-13.5a93.311,93.311,0,0,0-2.25-10.125L2386.87,19.725h-66.75L2285.25,173.1c-0.26,1.752-.69,4.125-1.32,7.125s-1.25,6.188-1.87,9.563-1.13,6.814-1.5,10.312-0.82,6.627-1.31,9.375h-1.88q-0.75-5.625-1.87-12.75t-2.25-13.687A72.274,72.274,0,0,0,2271,173.1L2233.5,19.725h-59.25l67.5,257.25h65.62Zm451.88,0V230.85h-151.5V168.225h132V122.85h-132V65.475H2757V19.725H2551.5v257.25h207.75Zm224.62,0V229.35H2854.12V19.725h-55.87v257.25h185.62Zm212.25,0V229.35H3066.37V19.725H3010.5v257.25h185.62Zm143.63,0v-163.5h1.87q1.875,3.375,6,9.75t7.88,11.625l105.75,142.125h51.37V19.725h-52.87V182.1h-1.88a49.522,49.522,0,0,0-4.12-7.125q-3.015-4.5-6.38-9.187t-5.62-7.313l-103.5-138.75h-51.38v257.25h52.88Zm276.37,0V174.6h119.63V129.225H3616.12V65.475H3750V19.725H3560.25v257.25h55.87Zm287.63,0V66.6h82.87V19.725H3765V66.6h82.5V276.975h56.25Z"/>
</svg>
