<svg xmlns="http://www.w3.org/2000/svg" width="1350" height="300" viewBox="0 0 1350 300">
  <defs>
    <style>
      .cls-1 {
        fill: #dba034;
        stroke: #db963c;
        stroke-linejoin: round;
        stroke-width: 2px;
        fill-rule: evenodd;
      }
    </style>
  </defs>
  <path id="NFT" class="cls-1" d="M683.775,278.928v-163.5h1.875q1.874,3.375,6,9.75t7.875,11.625l105.75,142.125H856.65V21.678H803.775V184.053H801.9a48.794,48.794,0,0,0-4.125-7.125q-3-4.5-6.375-9.187t-5.625-7.313l-103.5-138.75H630.9v257.25h52.875Zm276.375,0V176.553h119.63V131.178H960.15V67.428h133.88V21.678H904.275v257.25H960.15Zm287.63,0V68.553h82.87V21.678H1109.03V68.553h82.5V278.928h56.25Z"/>
  <path id="CONRAD_SEWELL" data-name="CONRAD SEWELL" class="cls-1" d="M79.559,117.859a32.778,32.778,0,0,0,15.056-12.307q5.43-8.25,5.432-20.762h-19.8A21.129,21.129,0,0,1,77.5,95.927a17.41,17.41,0,0,1-7.837,6.875A28.4,28.4,0,0,1,57.7,105.14q-8.8,0-14.369-3.369a20.377,20.377,0,0,1-8.319-10.037q-2.752-6.668-2.75-16.569V70.9A43.778,43.778,0,0,1,34.94,54.609,20.183,20.183,0,0,1,43.328,44.5q5.7-3.435,14.506-3.437a25.379,25.379,0,0,1,11.344,2.406,17.629,17.629,0,0,1,7.563,6.944,21.551,21.551,0,0,1,2.681,11.138h20.625q0-12.51-5.569-20.763A34.055,34.055,0,0,0,79.284,28.415,54.657,54.657,0,0,0,57.559,24.29q-22.14,0-34.306,12.031T11.084,73.1q0,16.777,5.431,27.638A34.494,34.494,0,0,0,32.4,116.759q10.448,5.156,25.162,5.156A56.256,56.256,0,0,0,79.559,117.859Zm103.194-1.307a37.055,37.055,0,0,0,16.568-16.225Q205.1,89.467,205.1,73.1q0-16.635-5.776-27.431a36.766,36.766,0,0,0-16.568-16.088q-10.8-5.292-26.057-5.294-14.988,0-25.849,5.294a36.692,36.692,0,0,0-16.638,16.088q-5.775,10.8-5.775,27.431,0,16.365,5.775,27.225a36.977,36.977,0,0,0,16.638,16.225q10.86,5.362,25.849,5.363Q171.96,121.915,182.753,116.552Zm-37.744-13.337a21.334,21.334,0,0,1-8.525-5.775,24.952,24.952,0,0,1-5.156-9.419A43.056,43.056,0,0,1,129.609,75.3V71.04a44.294,44.294,0,0,1,1.719-12.925,24.3,24.3,0,0,1,5.156-9.419,21.7,21.7,0,0,1,8.525-5.706A32.9,32.9,0,0,1,156.7,41.065a33.349,33.349,0,0,1,11.826,1.925,21.733,21.733,0,0,1,8.525,5.706,25.069,25.069,0,0,1,5.225,9.419,42.827,42.827,0,0,1,1.787,12.925V75.3a41.634,41.634,0,0,1-1.787,12.719,25.77,25.77,0,0,1-5.225,9.419,21.368,21.368,0,0,1-8.525,5.775A33.3,33.3,0,0,1,156.7,105.14,32.847,32.847,0,0,1,145.009,103.215Zm92.675,17.05V60.315h0.688q0.685,1.238,2.2,3.575t2.888,4.262l38.775,52.113h18.837V25.94H281.684V85.477H281a17.9,17.9,0,0,0-1.513-2.612q-1.1-1.65-2.337-3.369t-2.063-2.681L237.134,25.94H218.3v94.325h19.388Zm101.338,0V85.89h26.262l16.638,34.375h22.687l-19.25-37.813a26.633,26.633,0,0,0,11.963-10.794,31.769,31.769,0,0,0,4.125-16.294,33.017,33.017,0,0,0-3.438-15.331,24.163,24.163,0,0,0-10.381-10.381q-6.945-3.713-17.394-3.712h-51.7v94.325h20.488Zm0-77.688h28.462a15.3,15.3,0,0,1,7.15,1.512,10.137,10.137,0,0,1,4.4,4.469,15.388,15.388,0,0,1,1.513,7.081q0,6.465-3.438,10.244t-9.625,3.781H339.022V42.577Zm88,77.688,6.737-18.563h41.113l6.737,18.563h22.138l-36.3-94.325h-25.3l-36.3,94.325h21.175Zm21.037-58.3q0.687-2.062,1.788-5.294t2.2-6.738q1.1-3.506,1.787-6.119h0.825q0.687,2.063,1.444,4.606t1.581,5.156q0.825,2.614,1.581,4.744t1.307,3.644L468.959,85.2H439.672Zm102.025,58.3q14.712,0,25.025-5.088A35.394,35.394,0,0,0,590.99,99.64q5.569-10.448,5.569-26.537,0-16.223-5.569-26.606a35.493,35.493,0,0,0-15.881-15.469Q564.8,25.942,550.084,25.94h-38.5v94.325h38.5Zm-18.012-77.55h17.875a30.416,30.416,0,0,1,11,1.856,20.463,20.463,0,0,1,7.975,5.362,23.286,23.286,0,0,1,4.812,8.8,41.449,41.449,0,0,1,1.65,12.306v4.125a41.439,41.439,0,0,1-1.65,12.306,23.269,23.269,0,0,1-4.812,8.8,19.828,19.828,0,0,1-7.975,5.294,31.461,31.461,0,0,1-11,1.787H532.072V42.715ZM92.209,277.223a29.644,29.644,0,0,0,14.3-9.625q5.225-6.6,5.225-17.462a22.377,22.377,0,0,0-2.475-10.863,23.483,23.483,0,0,0-6.6-7.631,39.9,39.9,0,0,0-9.35-5.156,105.454,105.454,0,0,0-10.725-3.575q-5.5-1.512-10.725-2.75a76.982,76.982,0,0,1-9.419-2.819,21.068,21.068,0,0,1-6.6-3.713,7.158,7.158,0,0,1-.275-10.45,13.637,13.637,0,0,1,6.188-3.231,38.068,38.068,0,0,1,9.831-1.1,26.327,26.327,0,0,1,9.35,1.513,14.712,14.712,0,0,1,6.188,4.125,9.5,9.5,0,0,1,2.2,6.325v1.1h19.937v-1.65a24.737,24.737,0,0,0-2.956-12.375,25.068,25.068,0,0,0-8.181-8.663,36.892,36.892,0,0,0-12.1-5.019,65.016,65.016,0,0,0-14.575-1.581A69.5,69.5,0,0,0,56.184,184.2a40.393,40.393,0,0,0-12.375,4.882,25.015,25.015,0,0,0-8.8,31.762,22.365,22.365,0,0,0,6.6,7.7,43.4,43.4,0,0,0,9.35,5.156,86.02,86.02,0,0,0,10.725,3.575L72.409,240.1a85.092,85.092,0,0,1,9.419,3.025,19.751,19.751,0,0,1,6.6,3.988,8.068,8.068,0,0,1,2.406,6.05,8.829,8.829,0,0,1-.756,3.712,7.79,7.79,0,0,1-2.337,2.888,14.807,14.807,0,0,1-3.987,2.131,28.216,28.216,0,0,1-5.5,1.375,46.337,46.337,0,0,1-7.081.481,35.307,35.307,0,0,1-10.862-1.512,14.394,14.394,0,0,1-7.081-4.538,11.542,11.542,0,0,1-2.406-7.425v-1.237a3.555,3.555,0,0,1,.138-1.1H30.609a3.85,3.85,0,0,0-.138,1.168v1.444A25.261,25.261,0,0,0,42.64,273.3,40.468,40.468,0,0,0,55.772,278.6a72.1,72.1,0,0,0,15.675,1.65A65.622,65.622,0,0,0,92.209,277.223ZM200.834,278.6V261.686h-55.55V238.723h48.4V222.086h-48.4V201.048h54.725V184.273h-75.35V278.6h76.175Zm53.9,0,13.75-58.025q0.413-1.785.894-4.262t0.825-5.088q0.342-2.61.619-4.537h0.55q0.273,1.926.687,4.4t0.894,5.018q0.48,2.547.894,4.469L287.734,278.6h23.375L336,184.273H316.334l-13.612,56.238q-0.278,1.238-.688,2.887t-0.756,3.506q-0.345,1.857-.688,3.644t-0.618,3.3h-0.688q-0.278-2.062-.687-4.675t-0.825-4.95a34.212,34.212,0,0,0-.825-3.712l-13.063-56.238H259.409l-12.787,56.238q-0.14.963-.482,2.612t-0.687,3.506q-0.345,1.857-.55,3.782t-0.481,3.437h-0.688q-0.278-2.062-.687-4.675t-0.825-5.019a26.506,26.506,0,0,0-.825-3.643l-13.75-56.238H205.922l24.75,94.325h24.062Zm165.688,0V261.686h-55.55V238.723h48.4V222.086h-48.4V201.048H419.6V184.273h-75.35V278.6h76.175Zm82.362,0V261.136H455.209V184.273H434.722V278.6h68.062Zm77.825,0V261.136H533.034V184.273H512.547V278.6h68.062Z"/>
</svg>
